{
    "asset" : {
        "generator" : "Khronos glTF Blender I/O v1.2.75",
        "version" : "2.0"
    },
    "scene" : 0,
    "scenes" : [
        {
            "name" : "Scene",
            "nodes" : [
                0
            ]
        }
    ],
    "nodes" : [
        {
            "mesh" : 0,
            "name" : "GorillaBody"
        }
    ],
    "materials" : [
        {
            "doubleSided" : true,
            "emissiveFactor" : [
                0,
                0,
                0
            ],
            "name" : "GorillaTexture",
            "pbrMetallicRoughness" : {
                "baseColorTexture" : {
                    "index" : 0,
                    "texCoord" : 0
                },
                "metallicFactor" : 0,
                "roughnessFactor" : 0
            }
        },
        {
            "doubleSided" : true,
            "emissiveFactor" : [
                0,
                0,
                0
            ],
            "name" : "Material.001",
            "pbrMetallicRoughness" : {
                "baseColorTexture" : {
                    "index" : 1,
                    "texCoord" : 0
                },
                "metallicFactor" : 0.21259842813014984,
                "roughnessFactor" : 0.34251970052719116
            }
        },
        {
            "doubleSided" : true,
            "emissiveFactor" : [
                0,
                0,
                0
            ],
            "name" : "Material.002",
            "pbrMetallicRoughness" : {
                "baseColorTexture" : {
                    "index" : 2,
                    "texCoord" : 0
                },
                "metallicFactor" : 0,
                "roughnessFactor" : 0.5
            }
        }
    ],
    "meshes" : [
        {
            "name" : "Scene.001",
            "primitives" : [
                {
                    "attributes" : {
                        "POSITION" : 0,
                        "NORMAL" : 1,
                        "TEXCOORD_0" : 2,
                        "TEXCOORD_1" : 3,
                        "JOINTS_0" : 4,
                        "WEIGHTS_0" : 5
                    },
                    "indices" : 6,
                    "material" : 0
                },
                {
                    "attributes" : {
                        "POSITION" : 7,
                        "NORMAL" : 8,
                        "TEXCOORD_0" : 9,
                        "TEXCOORD_1" : 10,
                        "JOINTS_0" : 11,
                        "WEIGHTS_0" : 12
                    },
                    "indices" : 13,
                    "material" : 1
                },
                {
                    "attributes" : {
                        "POSITION" : 14,
                        "NORMAL" : 15,
                        "TEXCOORD_0" : 16,
                        "TEXCOORD_1" : 17,
                        "JOINTS_0" : 18,
                        "WEIGHTS_0" : 19
                    },
                    "indices" : 20,
                    "material" : 2
                }
            ]
        }
    ],
    "textures" : [
        {
            "source" : 0
        },
        {
            "source" : 1
        },
        {
            "source" : 2
        }
    ],
    "images" : [
        {
            "mimeType" : "image/png",
            "name" : "lava",
            "uri" : "lava.png"
        },
        {
            "mimeType" : "image/jpeg",
            "name" : "Download (1)",
            "uri" : "Download%201.jpg"
        },
        {
            "mimeType" : "image/jpeg",
            "name" : "header",
            "uri" : "header.jpg"
        }
    ],
    "accessors" : [
        {
            "bufferView" : 0,
            "componentType" : 5126,
            "count" : 3836,
            "max" : [
                0.3423542082309723,
                0.6529501676559448,
                0.1655549257993698
            ],
            "min" : [
                -0.34235426783561707,
                -0.6157139539718628,
                -0.21105805039405823
            ],
            "type" : "VEC3"
        },
        {
            "bufferView" : 1,
            "componentType" : 5126,
            "count" : 3836,
            "type" : "VEC3"
        },
        {
            "bufferView" : 2,
            "componentType" : 5126,
            "count" : 3836,
            "type" : "VEC2"
        },
        {
            "bufferView" : 3,
            "componentType" : 5126,
            "count" : 3836,
            "type" : "VEC2"
        },
        {
            "bufferView" : 4,
            "componentType" : 5123,
            "count" : 3836,
            "type" : "VEC4"
        },
        {
            "bufferView" : 5,
            "componentType" : 5126,
            "count" : 3836,
            "type" : "VEC4"
        },
        {
            "bufferView" : 6,
            "componentType" : 5123,
            "count" : 4182,
            "type" : "SCALAR"
        },
        {
            "bufferView" : 7,
            "componentType" : 5126,
            "count" : 92,
            "max" : [
                0.08683307468891144,
                0.5441604852676392,
                0.16585494577884674
            ],
            "min" : [
                -0.08647540211677551,
                0.3428996801376343,
                0.12704414129257202
            ],
            "type" : "VEC3"
        },
        {
            "bufferView" : 8,
            "componentType" : 5126,
            "count" : 92,
            "type" : "VEC3"
        },
        {
            "bufferView" : 9,
            "componentType" : 5126,
            "count" : 92,
            "type" : "VEC2"
        },
        {
            "bufferView" : 10,
            "componentType" : 5126,
            "count" : 92,
            "type" : "VEC2"
        },
        {
            "bufferView" : 11,
            "componentType" : 5123,
            "count" : 92,
            "type" : "VEC4"
        },
        {
            "bufferView" : 12,
            "componentType" : 5126,
            "count" : 92,
            "type" : "VEC4"
        },
        {
            "bufferView" : 13,
            "componentType" : 5123,
            "count" : 126,
            "type" : "SCALAR"
        },
        {
            "bufferView" : 14,
            "componentType" : 5126,
            "count" : 36,
            "max" : [
                0.11546016484498978,
                0.3040612041950226,
                0.12531326711177826
            ],
            "min" : [
                -0.11546021699905396,
                0.009063239209353924,
                0.08826971799135208
            ],
            "type" : "VEC3"
        },
        {
            "bufferView" : 15,
            "componentType" : 5126,
            "count" : 36,
            "type" : "VEC3"
        },
        {
            "bufferView" : 16,
            "componentType" : 5126,
            "count" : 36,
            "type" : "VEC2"
        },
        {
            "bufferView" : 17,
            "componentType" : 5126,
            "count" : 36,
            "type" : "VEC2"
        },
        {
            "bufferView" : 18,
            "componentType" : 5123,
            "count" : 36,
            "type" : "VEC4"
        },
        {
            "bufferView" : 19,
            "componentType" : 5126,
            "count" : 36,
            "type" : "VEC4"
        },
        {
            "bufferView" : 20,
            "componentType" : 5123,
            "count" : 42,
            "type" : "SCALAR"
        }
    ],
    "bufferViews" : [
        {
            "buffer" : 0,
            "byteLength" : 46032,
            "byteOffset" : 0
        },
        {
            "buffer" : 0,
            "byteLength" : 46032,
            "byteOffset" : 46032
        },
        {
            "buffer" : 0,
            "byteLength" : 30688,
            "byteOffset" : 92064
        },
        {
            "buffer" : 0,
            "byteLength" : 30688,
            "byteOffset" : 122752
        },
        {
            "buffer" : 0,
            "byteLength" : 30688,
            "byteOffset" : 153440
        },
        {
            "buffer" : 0,
            "byteLength" : 61376,
            "byteOffset" : 184128
        },
        {
            "buffer" : 0,
            "byteLength" : 8364,
            "byteOffset" : 245504
        },
        {
            "buffer" : 0,
            "byteLength" : 1104,
            "byteOffset" : 253868
        },
        {
            "buffer" : 0,
            "byteLength" : 1104,
            "byteOffset" : 254972
        },
        {
            "buffer" : 0,
            "byteLength" : 736,
            "byteOffset" : 256076
        },
        {
            "buffer" : 0,
            "byteLength" : 736,
            "byteOffset" : 256812
        },
        {
            "buffer" : 0,
            "byteLength" : 736,
            "byteOffset" : 257548
        },
        {
            "buffer" : 0,
            "byteLength" : 1472,
            "byteOffset" : 258284
        },
        {
            "buffer" : 0,
            "byteLength" : 252,
            "byteOffset" : 259756
        },
        {
            "buffer" : 0,
            "byteLength" : 432,
            "byteOffset" : 260008
        },
        {
            "buffer" : 0,
            "byteLength" : 432,
            "byteOffset" : 260440
        },
        {
            "buffer" : 0,
            "byteLength" : 288,
            "byteOffset" : 260872
        },
        {
            "buffer" : 0,
            "byteLength" : 288,
            "byteOffset" : 261160
        },
        {
            "buffer" : 0,
            "byteLength" : 288,
            "byteOffset" : 261448
        },
        {
            "buffer" : 0,
            "byteLength" : 576,
            "byteOffset" : 261736
        },
        {
            "buffer" : 0,
            "byteLength" : 84,
            "byteOffset" : 262312
        }
    ],
    "buffers" : [
        {
            "byteLength" : 262396,
            "uri" : "scene.bin"
        }
    ]
}
