{
    "asset" : {
        "generator" : "Khronos glTF Blender I/O v1.2.75",
        "version" : "2.0"
    },
    "scene" : 0,
    "scenes" : [
        {
            "name" : "Scene",
            "nodes" : [
                0
            ]
        }
    ],
    "nodes" : [
        {
            "mesh" : 0,
            "name" : "GorillaLowPoly_0.003",
            "rotation" : [
                0,
                0,
                -0.7071067690849304,
                0.7071067690849304
            ]
        }
    ],
    "materials" : [
        {
            "doubleSided" : true,
            "emissiveFactor" : [
                0,
                0,
                0
            ],
            "name" : "Material.005",
            "pbrMetallicRoughness" : {
                "baseColorTexture" : {
                    "index" : 0,
                    "texCoord" : 0
                },
                "metallicFactor" : 0,
                "roughnessFactor" : 0.6732679605484009
            }
        }
    ],
    "meshes" : [
        {
            "name" : "GorillaLowPoly_0.003",
            "primitives" : [
                {
                    "attributes" : {
                        "POSITION" : 0,
                        "NORMAL" : 1,
                        "TEXCOORD_0" : 2
                    },
                    "indices" : 3,
                    "material" : 0
                }
            ]
        }
    ],
    "textures" : [
        {
            "source" : 0
        }
    ],
    "images" : [
        {
            "bufferView" : 4,
            "mimeType" : "image/png",
            "name" : "Tex_Gorilla_A"
        }
    ],
    "accessors" : [
        {
            "bufferView" : 0,
            "componentType" : 5126,
            "count" : 4117,
            "max" : [
                1.4153170585632324,
                4.298827171325684,
                0.057659998536109924
            ],
            "min" : [
                -1.0385689735412598,
                -4.043810844421387,
                -5.876372814178467
            ],
            "type" : "VEC3"
        },
        {
            "bufferView" : 1,
            "componentType" : 5126,
            "count" : 4117,
            "type" : "VEC3"
        },
        {
            "bufferView" : 2,
            "componentType" : 5126,
            "count" : 4117,
            "type" : "VEC2"
        },
        {
            "bufferView" : 3,
            "componentType" : 5123,
            "count" : 16116,
            "type" : "SCALAR"
        }
    ],
    "bufferViews" : [
        {
            "buffer" : 0,
            "byteLength" : 49404,
            "byteOffset" : 0
        },
        {
            "buffer" : 0,
            "byteLength" : 49404,
            "byteOffset" : 49404
        },
        {
            "buffer" : 0,
            "byteLength" : 32936,
            "byteOffset" : 98808
        },
        {
            "buffer" : 0,
            "byteLength" : 32232,
            "byteOffset" : 131744
        },
        {
            "buffer" : 0,
            "byteLength" : 821345,
            "byteOffset" : 163976
        }
    ],
    "buffers" : [
        {
            "byteLength" : 985324,
            "uri" : "data:application/octet-stream;base64,"
        }
    ]
}
